<svg width="128" height="128" viewBox="0 0 128 128" fill="none" xmlns="http://www.w3.org/2000/svg">
<path d="M0 16C0 7.16344 7.16344 0 16 0H112C120.837 0 128 7.16344 128 16V112C128 120.837 120.837 128 112 128H16C7.16344 128 0 120.837 0 112V16Z" fill="#D3D3D3"/>
<path d="M6.86648 87V40.4545H26.0938C29.5786 40.4545 32.5862 41.1364 35.1165 42.5C37.6619 43.8485 39.6241 45.7348 41.0028 48.1591C42.3816 50.5682 43.071 53.3712 43.071 56.5682C43.071 59.7803 42.3665 62.5909 40.9574 65C39.5634 67.3939 37.571 69.25 34.9801 70.5682C32.3892 71.8864 29.3134 72.5455 25.7528 72.5455H13.8892V63.6818H23.6619C25.3589 63.6818 26.7756 63.3864 27.9119 62.7955C29.0634 62.2045 29.9347 61.3788 30.5256 60.3182C31.1165 59.2424 31.4119 57.9924 31.4119 56.5682C31.4119 55.1288 31.1165 53.8864 30.5256 52.8409C29.9347 51.7803 29.0634 50.9621 27.9119 50.3864C26.7604 49.8106 25.3438 49.5227 23.6619 49.5227H18.1165V87H6.86648ZM61.3381 40.4545H72.429V72.6364C72.4138 75.6515 71.6941 78.2879 70.2699 80.5455C68.8456 82.7879 66.8759 84.5303 64.3608 85.7727C61.8608 87.0152 58.9669 87.6364 55.679 87.6364C52.7699 87.6364 50.1259 87.1288 47.7472 86.1136C45.3835 85.0985 43.4972 83.5227 42.0881 81.3864C40.6941 79.25 40.0047 76.5152 40.0199 73.1818H51.2244C51.2699 74.3788 51.4972 75.4015 51.9062 76.25C52.3305 77.0833 52.9138 77.7121 53.6562 78.1364C54.3987 78.5606 55.285 78.7727 56.3153 78.7727C57.3911 78.7727 58.3002 78.5455 59.0426 78.0909C59.785 77.6212 60.3456 76.9318 60.7244 76.0227C61.1184 75.1136 61.3229 73.9848 61.3381 72.6364V40.4545ZM121.741 57.3182H110.378C110.226 56.1515 109.916 55.0985 109.446 54.1591C108.976 53.2197 108.355 52.4167 107.582 51.75C106.81 51.0833 105.893 50.5758 104.832 50.2273C103.787 49.8636 102.628 49.6818 101.355 49.6818C99.0975 49.6818 97.1506 50.2348 95.5142 51.3409C93.893 52.447 92.643 54.0455 91.7642 56.1364C90.9006 58.2273 90.4688 60.7576 90.4688 63.7273C90.4688 66.8182 90.9081 69.4091 91.7869 71.5C92.6809 73.5758 93.9309 75.1439 95.5369 76.2045C97.1581 77.25 99.0748 77.7727 101.287 77.7727C102.529 77.7727 103.658 77.6136 104.673 77.2955C105.704 76.9773 106.605 76.5152 107.378 75.9091C108.166 75.2879 108.81 74.5379 109.31 73.6591C109.825 72.7652 110.181 71.7576 110.378 70.6364L121.741 70.7045C121.545 72.7652 120.946 74.7955 119.946 76.7955C118.961 78.7955 117.605 80.6212 115.878 82.2727C114.151 83.9091 112.045 85.2121 109.56 86.1818C107.09 87.1515 104.257 87.6364 101.06 87.6364C96.8475 87.6364 93.0748 86.7121 89.7415 84.8636C86.4233 83 83.8021 80.2879 81.8778 76.7273C79.9536 73.1667 78.9915 68.8333 78.9915 63.7273C78.9915 58.6061 79.9688 54.2652 81.9233 50.7045C83.8778 47.1439 86.5218 44.4394 89.8551 42.5909C93.1884 40.7424 96.9233 39.8182 101.06 39.8182C103.878 39.8182 106.484 40.2121 108.878 41C111.272 41.7727 113.378 42.9091 115.196 44.4091C117.014 45.8939 118.491 47.7197 119.628 49.8864C120.764 52.053 121.469 54.5303 121.741 57.3182Z" fill="#5A5A5A"/>
</svg>
