<svg width="105" height="105" viewBox="0 0 105 105" fill="none" xmlns="http://www.w3.org/2000/svg">
<path d="M52.5 0C43.8663 -1.02956e-07 35.3659 2.12925 27.7517 6.19913C20.1374 10.269 13.6445 16.1539 8.84785 23.3326C4.05123 30.5112 1.09905 38.762 0.252802 47.3541C-0.593447 55.9462 0.692359 64.6144 3.99632 72.5909C7.30029 80.5674 12.5204 87.6059 19.1944 93.083C25.8683 98.5602 33.79 102.307 42.2578 103.991C50.7255 105.676 59.478 105.246 67.7399 102.739C76.0019 100.233 83.5182 95.728 89.6231 89.6231L52.5 52.5L52.5 0Z" fill="#5A5A5A"/>
<path d="M52.5002 7.78149C61.4821 7.78149 70.265 10.4272 77.7525 15.3882C85.2399 20.3493 91.1002 27.406 94.6016 35.6772C98.1031 43.9485 99.0906 53.0679 97.441 61.897C95.7913 70.7261 91.5775 78.8737 85.3256 85.3225L52.5002 53.5L52.5002 7.78149Z" fill="#D9D9D9"/>
<path d="M52.5001 16.6302C58.5634 16.6302 64.5331 18.1256 69.8804 20.9838C75.2277 23.842 79.7876 27.9748 83.1562 33.0163C86.5248 38.0577 88.598 43.8521 89.1923 49.8861C89.7866 55.9202 88.8836 62.0077 86.5633 67.6094C84.243 73.2112 80.577 78.1542 75.89 82.0007C71.2031 85.8472 65.6398 88.4784 59.6931 89.6613C53.7463 90.8442 47.5996 90.5422 41.7974 88.7821C35.9952 87.0221 30.7167 83.8582 26.4293 79.5709L52.5001 53.5L52.5001 16.6302Z" fill="#808080"/>
<circle cx="52.4998" cy="53.5001" r="29.0042" fill="#4E4E4E"/>
<circle cx="52.9917" cy="53.9916" r="18.6807" fill="#DFDFDF"/>
</svg>
